<svg xmlns="http://www.w3.org/2000/svg" viewBox="0 0 440 440" fill="none" aria-hidden="true">
<g stroke="#91b5d1" stroke-opacity=".56" stroke-width="2.1" stroke-linecap="round" stroke-linejoin="round">
<path d="M219 216C175 157 167 82 210 4c52 64 59 134 9 212Z"/>
<path d="M219 216C262 150 336 117 429 139c-37 71-101 111-210 77Z"/>
<path d="M219 216c86 11 149 64 168 153-88-12-144-60-168-153Z"/>
<path d="M219 216c17 98-17 166-89 208-13-86 14-153 89-208Z"/>
<path d="M219 216C121 248 51 222 7 151c79-22 153 1 212 65Z"/>
<path d="M219 216C141 187 106 123 121 37c72 36 106 93 98 179Z"/>
</g></svg>